<?xml version="1.0" encoding="UTF-8"?>
<svg xmlns="http://www.w3.org/2000/svg" xmlns:xlink="http://www.w3.org/1999/xlink" width="10pt" height="10pt" viewBox="0 0 10 10" version="1.1">
<g id="surface1">
<path style=" stroke:none;fill-rule:nonzero;fill:rgb(0%,0%,0%);fill-opacity:1;" d="M 5.328125 1.574219 C 5.148438 1.625 5.070312 1.738281 5.046875 1.984375 L 5.027344 2.199219 L 4.761719 2.226562 C 4.617188 2.238281 4.425781 2.273438 4.339844 2.300781 L 4.1875 2.355469 L 3.886719 2.109375 C 3.515625 1.8125 3.179688 1.644531 2.953125 1.644531 C 2.617188 1.644531 2.453125 1.96875 2.421875 2.6875 C 2.398438 3.167969 2.445312 3.503906 2.585938 3.738281 L 2.679688 3.902344 L 2.585938 4.160156 C 2.46875 4.480469 2.390625 4.992188 2.421875 5.21875 C 2.460938 5.496094 2.601562 5.742188 2.875 6.015625 C 3.039062 6.183594 3.140625 6.316406 3.15625 6.398438 C 3.171875 6.464844 3.195312 6.542969 3.210938 6.570312 C 3.222656 6.597656 3.214844 6.726562 3.1875 6.855469 C 3.160156 6.988281 3.136719 7.191406 3.136719 7.3125 C 3.136719 7.519531 3.128906 7.535156 3.015625 7.59375 L 2.890625 7.660156 L 2.765625 7.515625 C 2.640625 7.371094 2.523438 7.089844 2.523438 6.9375 C 2.523438 6.890625 2.5 6.832031 2.476562 6.808594 C 2.402344 6.753906 2.210938 6.960938 2.085938 7.226562 C 1.824219 7.800781 1.992188 8.476562 2.488281 8.851562 C 2.585938 8.925781 2.679688 8.988281 2.699219 8.988281 C 2.71875 8.988281 2.765625 9.039062 2.796875 9.105469 C 2.859375 9.207031 2.859375 9.230469 2.8125 9.304688 C 2.726562 9.425781 2.738281 9.613281 2.835938 9.699219 C 2.910156 9.769531 3 9.769531 4.933594 9.769531 C 6.863281 9.769531 6.957031 9.769531 7.035156 9.699219 C 7.128906 9.613281 7.140625 9.425781 7.058594 9.304688 C 7.003906 9.230469 7.011719 9.207031 7.121094 8.984375 C 7.273438 8.679688 7.3125 8.273438 7.214844 8.015625 C 7.144531 7.839844 6.886719 7.570312 6.785156 7.570312 C 6.746094 7.570312 6.730469 7.53125 6.730469 7.414062 L 6.730469 7.261719 L 6.839844 7.335938 C 7.074219 7.503906 7.441406 7.515625 7.613281 7.359375 C 7.710938 7.265625 7.707031 7.207031 7.554688 6.898438 L 7.421875 6.636719 L 7.5625 6.574219 C 7.742188 6.496094 7.929688 6.285156 7.992188 6.101562 C 8.03125 5.980469 8.03125 5.949219 7.96875 5.886719 C 7.929688 5.839844 7.855469 5.8125 7.761719 5.8125 C 7.6875 5.8125 7.5625 5.792969 7.492188 5.773438 C 7.417969 5.75 7.339844 5.71875 7.3125 5.714844 C 7.273438 5.703125 7.277344 5.675781 7.324219 5.585938 C 7.488281 5.269531 7.472656 4.769531 7.285156 4.195312 L 7.199219 3.917969 L 7.3125 3.683594 C 7.410156 3.476562 7.429688 3.390625 7.449219 3.03125 C 7.480469 2.363281 7.355469 1.84375 7.128906 1.695312 C 6.910156 1.550781 6.558594 1.640625 6.160156 1.941406 C 5.941406 2.105469 5.890625 2.113281 5.890625 1.976562 C 5.890625 1.839844 5.742188 1.644531 5.601562 1.582031 C 5.53125 1.550781 5.464844 1.527344 5.460938 1.535156 C 5.453125 1.535156 5.398438 1.550781 5.328125 1.574219 Z M 5.734375 2 C 5.804688 2.273438 5.757812 2.347656 5.59375 2.25 C 5.445312 2.160156 5.351562 2.214844 5.425781 2.335938 C 5.476562 2.414062 5.472656 2.421875 5.34375 2.398438 C 5.164062 2.371094 5.089844 2.445312 5.164062 2.578125 C 5.203125 2.65625 5.203125 2.683594 5.148438 2.753906 L 5.09375 2.835938 L 5.015625 2.757812 C 4.890625 2.632812 4.910156 2.496094 5.066406 2.347656 C 5.1875 2.238281 5.203125 2.199219 5.203125 2.035156 C 5.203125 1.769531 5.34375 1.652344 5.5625 1.738281 C 5.660156 1.773438 5.6875 1.816406 5.734375 2 Z M 6.710938 1.910156 C 6.613281 1.996094 6.511719 2.066406 6.488281 2.066406 C 6.457031 2.066406 6.367188 2.113281 6.285156 2.175781 C 6.191406 2.242188 6.109375 2.273438 6.082031 2.257812 C 5.992188 2.203125 6.667969 1.769531 6.855469 1.761719 C 6.878906 1.761719 6.808594 1.828125 6.710938 1.910156 Z M 3.285156 1.890625 C 3.496094 1.996094 3.777344 2.203125 3.980469 2.398438 L 4.121094 2.53125 L 4.378906 2.453125 C 4.519531 2.40625 4.671875 2.371094 4.722656 2.371094 C 4.804688 2.371094 4.8125 2.386719 4.792969 2.515625 C 4.75 2.828125 5.007812 3.066406 5.296875 2.984375 C 5.367188 2.96875 5.480469 2.914062 5.546875 2.867188 C 5.726562 2.738281 5.878906 2.789062 5.929688 2.992188 C 5.949219 3.082031 5.976562 3.1875 5.988281 3.21875 C 6 3.253906 6.0625 3.332031 6.121094 3.382812 C 6.257812 3.496094 6.511719 3.515625 6.613281 3.421875 C 6.675781 3.371094 6.691406 3.386719 6.832031 3.601562 C 7.027344 3.917969 7.101562 4.082031 7.199219 4.457031 C 7.3125 4.898438 7.304688 5.28125 7.175781 5.53125 C 7.035156 5.804688 6.660156 6.136719 6.292969 6.3125 C 5.792969 6.554688 5.570312 6.597656 4.894531 6.597656 C 4.332031 6.589844 4.285156 6.589844 3.941406 6.464844 C 3.738281 6.402344 3.519531 6.304688 3.441406 6.265625 C 2.992188 5.996094 2.695312 5.664062 2.59375 5.324219 C 2.535156 5.109375 2.601562 4.585938 2.738281 4.199219 C 2.851562 3.878906 3.167969 3.371094 3.464844 3.03125 C 3.578125 2.90625 3.671875 2.769531 3.671875 2.726562 C 3.671875 2.617188 3.40625 2.195312 3.210938 1.984375 C 3.113281 1.882812 3.054688 1.796875 3.066406 1.796875 C 3.085938 1.796875 3.179688 1.839844 3.285156 1.890625 Z M 6.808594 2.257812 C 6.929688 2.378906 6.910156 2.574219 6.761719 2.695312 C 6.660156 2.785156 6.644531 2.820312 6.652344 2.949219 C 6.660156 3.15625 6.566406 3.324219 6.433594 3.328125 C 6.402344 3.328125 6.414062 3.285156 6.464844 3.203125 C 6.558594 3.046875 6.5625 2.910156 6.472656 2.882812 C 6.355469 2.851562 6.292969 2.804688 6.277344 2.753906 C 6.269531 2.71875 6.285156 2.710938 6.359375 2.730469 C 6.414062 2.742188 6.472656 2.734375 6.480469 2.714844 C 6.519531 2.65625 6.425781 2.5625 6.328125 2.5625 C 6.277344 2.5625 6.234375 2.535156 6.222656 2.484375 C 6.207031 2.429688 6.246094 2.386719 6.382812 2.296875 C 6.589844 2.160156 6.699219 2.148438 6.808594 2.257812 Z M 6.035156 2.414062 C 6.105469 2.488281 6.089844 2.5625 5.988281 2.5625 C 5.890625 2.5625 5.792969 2.46875 5.832031 2.410156 C 5.863281 2.355469 5.976562 2.359375 6.035156 2.414062 Z M 6.398438 3.0625 C 6.457031 3.15625 6.402344 3.25 6.292969 3.25 C 6.183594 3.25 6.125 3.125 6.199219 3.039062 C 6.257812 2.96875 6.34375 2.980469 6.398438 3.0625 Z M 7.601562 5.964844 C 7.671875 5.992188 7.761719 6.003906 7.804688 5.992188 C 7.867188 5.976562 7.875 5.980469 7.835938 6.027344 C 7.75 6.132812 7.222656 6.246094 7.175781 6.164062 C 7.164062 6.144531 7.101562 6.136719 7.035156 6.148438 C 6.894531 6.167969 6.890625 6.121094 7.027344 5.996094 C 7.183594 5.847656 7.261719 5.84375 7.601562 5.964844 Z M 7.800781 6.148438 C 7.800781 6.199219 7.6875 6.347656 7.644531 6.347656 C 7.589844 6.347656 7.601562 6.246094 7.671875 6.179688 C 7.734375 6.113281 7.800781 6.101562 7.800781 6.148438 Z M 3.957031 6.644531 C 4.394531 6.785156 5.164062 6.960938 5.390625 6.960938 C 5.476562 6.960938 5.546875 6.976562 5.546875 6.988281 C 5.546875 7.050781 5.820312 6.988281 5.839844 6.925781 C 5.847656 6.890625 5.9375 6.832031 6.03125 6.792969 C 6.1875 6.726562 6.199219 6.714844 6.125 6.691406 C 6.007812 6.644531 6.023438 6.589844 6.160156 6.542969 C 6.3125 6.488281 6.308594 6.488281 6.308594 6.554688 C 6.308594 6.585938 6.328125 6.613281 6.355469 6.621094 C 6.441406 6.652344 6.265625 7.152344 6.101562 7.335938 C 6.003906 7.445312 5.964844 7.460938 5.863281 7.445312 C 5.75 7.425781 5.742188 7.429688 5.785156 7.5 C 5.875 7.636719 5.691406 7.789062 5.5625 7.683594 C 5.480469 7.617188 5.507812 7.488281 5.609375 7.433594 C 5.683594 7.398438 5.625 7.378906 5.195312 7.289062 C 4.921875 7.230469 4.628906 7.160156 4.546875 7.132812 C 4.40625 7.082031 4.402344 7.082031 4.441406 7.152344 C 4.515625 7.265625 4.441406 7.316406 4.292969 7.257812 C 4.160156 7.207031 4.128906 7.125 4.230469 7.085938 C 4.277344 7.070312 4.230469 7.035156 4.066406 6.960938 C 3.871094 6.871094 3.835938 6.863281 3.796875 6.910156 C 3.746094 6.972656 3.648438 6.9375 3.558594 6.832031 C 3.519531 6.78125 3.523438 6.765625 3.574219 6.746094 C 3.628906 6.722656 3.609375 6.691406 3.472656 6.550781 L 3.308594 6.378906 L 3.441406 6.441406 C 3.515625 6.480469 3.746094 6.570312 3.957031 6.644531 Z M 7.207031 6.636719 C 7.242188 6.652344 7.332031 6.792969 7.40625 6.953125 C 7.5625 7.28125 7.554688 7.304688 7.234375 7.304688 C 7.050781 7.304688 7.011719 7.289062 6.898438 7.175781 C 6.757812 7.035156 6.734375 6.929688 6.839844 6.898438 C 6.871094 6.886719 6.933594 6.863281 6.972656 6.839844 C 7.011719 6.816406 7.078125 6.816406 7.125 6.832031 C 7.191406 6.847656 7.199219 6.847656 7.164062 6.800781 C 7.117188 6.757812 7.09375 6.613281 7.128906 6.613281 C 7.136719 6.613281 7.175781 6.628906 7.207031 6.636719 Z M 3.542969 6.996094 C 3.753906 7.199219 4.042969 7.335938 4.644531 7.535156 C 5.132812 7.695312 5.429688 7.820312 5.699219 7.984375 C 6.015625 8.183594 6.214844 8.03125 6.488281 7.386719 L 6.582031 7.171875 L 6.5625 7.535156 C 6.535156 7.976562 6.425781 8.425781 6.261719 8.757812 C 6.152344 8.976562 6.125 9.003906 6.042969 8.992188 C 5.710938 8.9375 5.585938 9.027344 5.867188 9.121094 C 6.144531 9.214844 6.3125 9.464844 6.1875 9.589844 C 6.125 9.652344 5.539062 9.652344 5.457031 9.589844 C 5.40625 9.550781 5.390625 9.425781 5.367188 8.824219 C 5.34375 8.160156 5.335938 8.109375 5.269531 8.109375 C 5.203125 8.109375 5.203125 8.148438 5.203125 8.6875 C 5.203125 9.011719 5.21875 9.355469 5.234375 9.457031 L 5.265625 9.636719 L 4.925781 9.636719 C 4.738281 9.636719 4.59375 9.621094 4.605469 9.605469 C 4.617188 9.589844 4.636719 9.242188 4.652344 8.839844 C 4.671875 8.125 4.671875 8.109375 4.601562 8.109375 C 4.53125 8.109375 4.523438 8.140625 4.5 8.59375 C 4.488281 8.863281 4.472656 9.191406 4.472656 9.320312 C 4.472656 9.613281 4.441406 9.636719 4.019531 9.636719 C 3.691406 9.636719 3.582031 9.589844 3.621094 9.445312 C 3.648438 9.339844 3.886719 9.140625 4.019531 9.113281 C 4.152344 9.085938 4.175781 9.058594 4.128906 8.988281 C 4.105469 8.941406 4.066406 8.941406 3.933594 8.976562 C 3.84375 8.996094 3.753906 9.011719 3.730469 8.996094 C 3.671875 8.960938 3.453125 8.441406 3.386719 8.183594 C 3.355469 8.046875 3.316406 7.800781 3.304688 7.644531 C 3.277344 7.363281 3.3125 6.847656 3.355469 6.847656 C 3.367188 6.847656 3.449219 6.914062 3.542969 6.996094 Z M 2.445312 7.265625 C 2.46875 7.339844 2.550781 7.484375 2.632812 7.589844 L 2.777344 7.78125 L 2.683594 7.945312 C 2.601562 8.09375 2.59375 8.148438 2.609375 8.4375 C 2.617188 8.613281 2.609375 8.757812 2.59375 8.757812 C 2.539062 8.757812 2.28125 8.433594 2.207031 8.265625 C 2.0625 7.953125 2.097656 7.457031 2.289062 7.160156 C 2.351562 7.058594 2.382812 7.078125 2.445312 7.265625 Z M 5.039062 7.3125 C 5.09375 7.367188 5.101562 7.496094 5.050781 7.496094 C 4.992188 7.496094 4.78125 7.410156 4.78125 7.386719 C 4.78125 7.335938 4.871094 7.265625 4.933594 7.265625 C 4.96875 7.265625 5.015625 7.285156 5.039062 7.3125 Z M 3.152344 7.808594 C 3.164062 7.859375 3.179688 7.964844 3.195312 8.050781 C 3.238281 8.320312 3.398438 8.773438 3.519531 8.960938 L 3.632812 9.144531 L 3.558594 9.242188 C 3.511719 9.304688 3.480469 9.402344 3.480469 9.488281 L 3.480469 9.636719 L 3.253906 9.636719 C 3.128906 9.636719 3 9.625 2.96875 9.613281 C 2.796875 9.550781 3.007812 9.199219 3.246094 9.152344 C 3.390625 9.125 3.460938 9.050781 3.394531 8.996094 C 3.363281 8.96875 3.300781 8.972656 3.195312 9.011719 C 3.109375 9.039062 3.023438 9.070312 3 9.074219 C 2.921875 9.089844 2.78125 8.714844 2.761719 8.4375 C 2.742188 8.125 2.796875 7.960938 2.976562 7.8125 C 3.105469 7.703125 3.128906 7.703125 3.152344 7.808594 Z M 6.914062 7.839844 C 7.070312 7.992188 7.128906 8.183594 7.105469 8.46875 C 7.085938 8.703125 6.929688 9.089844 6.863281 9.074219 C 6.839844 9.070312 6.757812 9.039062 6.675781 9.011719 C 6.566406 8.972656 6.503906 8.96875 6.472656 8.996094 C 6.40625 9.050781 6.472656 9.125 6.621094 9.152344 C 6.855469 9.199219 7.066406 9.550781 6.898438 9.613281 C 6.863281 9.625 6.738281 9.636719 6.613281 9.636719 L 6.386719 9.636719 L 6.386719 9.511719 C 6.386719 9.445312 6.351562 9.332031 6.308594 9.265625 L 6.238281 9.140625 L 6.347656 8.960938 C 6.472656 8.75 6.636719 8.28125 6.675781 8.007812 C 6.71875 7.675781 6.738281 7.660156 6.914062 7.839844 Z M 6.914062 7.839844 "/>
<path style=" stroke:none;fill-rule:nonzero;fill:rgb(0%,0%,0%);fill-opacity:1;" d="M 3.390625 4.082031 C 3.34375 4.128906 3.367188 4.234375 3.4375 4.300781 C 3.480469 4.339844 3.519531 4.421875 3.527344 4.488281 C 3.535156 4.585938 3.550781 4.609375 3.628906 4.609375 C 3.699219 4.609375 3.730469 4.578125 3.761719 4.472656 C 3.832031 4.253906 4.019531 4.277344 4.066406 4.515625 C 4.089844 4.613281 4.105469 4.632812 4.175781 4.621094 C 4.308594 4.601562 4.316406 4.402344 4.1875 4.253906 C 4.066406 4.105469 3.902344 4.066406 3.753906 4.144531 C 3.652344 4.199219 3.636719 4.199219 3.574219 4.128906 C 3.507812 4.050781 3.4375 4.035156 3.390625 4.082031 Z M 3.390625 4.082031 "/>
<path style=" stroke:none;fill-rule:nonzero;fill:rgb(0%,0%,0%);fill-opacity:1;" d="M 6.292969 4.128906 C 6.230469 4.199219 6.21875 4.199219 6.109375 4.144531 C 5.882812 4.027344 5.585938 4.222656 5.585938 4.496094 C 5.585938 4.613281 5.59375 4.628906 5.679688 4.628906 C 5.75 4.628906 5.773438 4.609375 5.773438 4.554688 C 5.773438 4.515625 5.804688 4.441406 5.84375 4.398438 C 5.9375 4.277344 6.070312 4.324219 6.109375 4.488281 C 6.132812 4.582031 6.164062 4.609375 6.238281 4.609375 C 6.308594 4.609375 6.328125 4.589844 6.328125 4.503906 C 6.332031 4.449219 6.371094 4.359375 6.421875 4.308594 C 6.515625 4.207031 6.515625 4.082031 6.421875 4.058594 C 6.390625 4.058594 6.332031 4.082031 6.292969 4.128906 Z M 6.292969 4.128906 "/>
<path style=" stroke:none;fill-rule:nonzero;fill:rgb(0%,0%,0%);fill-opacity:1;" d="M 4.605469 4.800781 C 4.546875 4.886719 4.546875 4.902344 4.605469 4.992188 C 4.636719 5.042969 4.707031 5.113281 4.761719 5.148438 C 4.878906 5.226562 4.878906 5.253906 4.761719 5.308594 C 4.574219 5.390625 4.40625 5.367188 4.285156 5.230469 C 4.195312 5.136719 4.160156 5.117188 4.121094 5.15625 C 4.089844 5.1875 4.097656 5.222656 4.160156 5.304688 C 4.207031 5.367188 4.285156 5.5 4.332031 5.609375 C 4.472656 5.890625 4.65625 6.023438 4.933594 6.023438 C 5.203125 6.023438 5.375 5.910156 5.511719 5.632812 C 5.5625 5.53125 5.640625 5.40625 5.6875 5.34375 C 5.765625 5.246094 5.773438 5.125 5.703125 5.125 C 5.6875 5.125 5.625 5.171875 5.5625 5.238281 C 5.488281 5.320312 5.417969 5.351562 5.328125 5.351562 C 5.203125 5.351562 5.007812 5.285156 5.007812 5.242188 C 5.007812 5.230469 5.070312 5.171875 5.140625 5.113281 C 5.238281 5.035156 5.277344 4.976562 5.277344 4.902344 C 5.277344 4.742188 5.210938 4.703125 4.925781 4.703125 C 4.691406 4.703125 4.660156 4.710938 4.605469 4.800781 Z M 5.0625 5.660156 C 5.089844 5.660156 5.140625 5.683594 5.179688 5.714844 C 5.25 5.765625 5.246094 5.765625 5.132812 5.828125 C 5.066406 5.863281 4.980469 5.890625 4.933594 5.890625 C 4.820312 5.890625 4.621094 5.78125 4.644531 5.734375 C 4.675781 5.6875 4.898438 5.625 4.964844 5.644531 C 4.992188 5.652344 5.035156 5.660156 5.0625 5.660156 Z M 5.0625 5.660156 "/>
</g>
</svg>
